<svg viewBox="0 0 192 192" xmlns="http://www.w3.org/2000/svg">
  <defs>
    <linearGradient id="bg07" x1="0" y1="0" x2="1" y2="1">
      <stop offset="0" stop-color="#1A6DEB"/>
      <stop offset="1" stop-color="#0739A8"/>
    </linearGradient>
    <linearGradient id="screen07" x1="0" y1="0" x2="0" y2="1">
      <stop offset="0" stop-color="#FFFFFF"/>
      <stop offset="1" stop-color="#D8E2FF"/>
    </linearGradient>
    <clipPath id="rounded">
      <rect width="192" height="192" rx="40" ry="40"/>
    </clipPath>
  </defs>
  <g clip-path="url(#rounded)">
    <rect width="192" height="192" fill="url(#bg07)"/>
    <path d="M40 70 L96 42 L96 118 L40 146 Z" fill="#001847"/>
    <path d="M40 70 L96 42 L152 70 L96 98 Z" fill="#0843A0"/>
    <path d="M96 42 L152 70 L152 146 L96 118 Z" fill="#072A75"/>
    <path d="M52 71 L96 49 L140 71 L96 93 Z" fill="url(#screen07)"/>
    <g transform="translate(98 88) rotate(-8)">
      <path d="M0 0 L0 50 L13 38 L21 56 L29 52 L21 35 L37 35 Z"
            fill="#FFFFFF" stroke="#001847" stroke-width="3" stroke-linejoin="round"/>
    </g>
  </g>
</svg>
